<svg id="Logo_original" data-name="Logo original" xmlns="http://www.w3.org/2000/svg" viewBox="0 0 676.27 720"><defs><style>.cls-1{fill:#f8d95c;}.cls-2{fill:#1f3f7c;}.cls-10,.cls-3,.cls-4{fill:#fff;}.cls-10,.cls-4{font-size:29.11px;}.cls-10,.cls-13,.cls-4{font-family:QanelasSoft-Bold, Qanelas Soft;font-weight:700;}.cls-11,.cls-4{letter-spacing:0.12em;}.cls-5{letter-spacing:0.11em;}.cls-6{letter-spacing:0.03em;}.cls-7{letter-spacing:0.05em;}.cls-8{letter-spacing:0.09em;}.cls-9{letter-spacing:0.07em;}.cls-10{letter-spacing:0.13em;}.cls-12{letter-spacing:0.12em;}.cls-13{font-size:21.83px;letter-spacing:0.13em;}.cls-13,.cls-18{fill:#fdde5b;}.cls-14{letter-spacing:0.11em;}.cls-15{letter-spacing:0.12em;}.cls-16{letter-spacing:0.09em;}.cls-17{letter-spacing:0.09em;}</style></defs><title>Logo_asso_map</title><g id="Cadre"><path class="cls-1" d="M573.72,943.69a81.37,81.37,0,0,1-38.82-9.89L280,795A84.21,84.21,0,0,1,236,721.34L235,456.74A102.66,102.66,0,0,1,288.77,366L531.41,234.4a88.6,88.6,0,0,1,84.6.08L866.92,371.12a84.89,84.89,0,0,1,44.32,74.6V720.49a85.21,85.21,0,0,1-44.48,74.87L612.54,933.8A81.4,81.4,0,0,1,573.72,943.69Z" transform="translate(-234.96 -223.69)"/><path class="cls-2" d="M573.72,923.69a61.41,61.41,0,0,1-29.26-7.45L289.53,777.41A64.23,64.23,0,0,1,256,721.26L255,456.66a82.7,82.7,0,0,1,43.34-73.13L540.94,252a68.62,68.62,0,0,1,65.5.06L857.36,388.68a64.91,64.91,0,0,1,33.88,57V720.49a65.23,65.23,0,0,1-34,57.31L603,916.24A61.37,61.37,0,0,1,573.72,923.69Z" transform="translate(-234.96 -223.69)"/></g><g id="Classic_head" data-name="Classic head"><path d="M516.34,489.27a5.8,5.8,0,0,1-4.38-1.86c-2.18-2.34-2.12-6-2.06-6.91l.21-14.28c-10.66-13.6-19.72-24.32-21.76-25.73a7.22,7.22,0,0,0-2.39-.38,7.44,7.44,0,0,0-1.78.19,41.83,41.83,0,0,1-11.36,1.47,42.59,42.59,0,0,1-6.68-.48,3.35,3.35,0,0,1-.59-.14c-4.39-1.35-7.09-3.34-8.27-6.09-1.49-3.47,0-6.76,1-8.82a11.76,11.76,0,0,0-1.3-2.41l-.45-.71c-.95-1.57-1.95-3.63-1.22-5.65l.06-.15a5.55,5.55,0,0,1-.74-1.6c-.54-2,.05-4.39,1.66-6.67a16.62,16.62,0,0,0,1.7-2.88l-3.66-2.58-.27-.35a6.8,6.8,0,0,1,.91-9.59l6.89-7.55a4.43,4.43,0,0,1,1-.81c.73-.44,1.69-2.21,2.27-4.16a96.66,96.66,0,0,1,1.15-20.35l0-.18a11.19,11.19,0,0,1,11.2-9.72,12.56,12.56,0,0,1,5.26,1.17C487,354,494.68,358.38,499,366.12c6.87,12.37,12.23,32.61,8.9,43.74-3,10.06-2.23,18.81,2.32,26,9.51,15,32.29,19.21,35,19.66h.5l.23.12,5.2.79-2.37,2.36c2.43,3.17,8.06,10.1,13.26,16.39l.67.81,25.42,4.08c0,2.85-28.1-.1-29.88,0l-4.14.1c-3.81.07-7.86.12-10.83.12-2.26,0-3.94,0-5-.08h-.67a15.43,15.43,0,0,0-6.69,1.51l-12.79,7.4-.52.09a8,8,0,0,1-1.27.11Z" transform="translate(-234.96 -223.69)"/><path d="M472.17,354.23v-3.39a7.94,7.94,0,0,1,3.58-6.63,107.27,107.27,0,0,1,14-6.86l2.59,5.21c-.06,0-6.27,3.79-8.81,9.88l-.74,1.79Z" transform="translate(-234.96 -223.69)"/><path d="M595,382.83c-5.46,0-25-2.11-46.85-29.22-.17-.21-12.27-15.66-29.5-16.29-1,0-2.09-.06-3.25-.06a110.59,110.59,0,0,0-14.95,1l-.2,0c-.06,0-14.12,6.06-28.72,14.28h0a20.86,20.86,0,0,1,7.32-14.22c7.57-6.35,20.89-15.18,36.52-15.18,12.69,0,25,5.33,36.53,15.84,6.81,6.2,23.89,25,34,30.41,1,.56,2.06,1.17,3.06,1.81L604,380.78l-7.26,2A15.57,15.57,0,0,1,595,382.83Z" transform="translate(-234.96 -223.69)"/><path d="M593.74,394.79a34,34,0,0,1-12.59-2.42,44.68,44.68,0,0,1-9.22-5c-.61-.43-15.41-10.89-33.2-31.56a23.25,23.25,0,0,0-12.57-7.68A48.37,48.37,0,0,0,515.6,347c-9.75,0-20.41,2.55-31.7,7.58L475,358.55l5.24-8.18c.42-.66,10.64-16.19,34.74-16.19a66,66,0,0,1,16.9,2.34c7.45,2,13.67,8.62,21.56,17,6.87,7.34,14.67,15.67,25.48,23.5,2.2,1.59,10.35,4.19,10.35,4.19,13.31,5,29.37-13.13,29.37-13.13,2.09-2.31,14.81-10.85,30-11.5,0,0-21.18,14.59-27.78,24.41a21.66,21.66,0,0,1-2,2.6,34,34,0,0,1-25.15,11.16Z" transform="translate(-234.96 -223.69)"/><polygon points="243.28 129.74 263.09 121.02 255.96 137.27 243.28 129.74"/><path d="M603.4,414.48c-7.36,0-13.4-.87-18.45-2.64-22-7.7-28.08-15.33-35.17-24.17-5.07-6.32-10.31-12.86-22.55-20.74-9.94-6.4-17.09-7.13-21.6-7.13a61.05,61.05,0,0,0-6.75.46,52,52,0,0,1-5.42.39c-.42,0-.84,0-1.25,0l-3-.17.32-3c.4-3.83,4-11.56,14.74-13.32a45.46,45.46,0,0,1,7.45-.64c9.49,0,17.92,3.36,26.54,10.59a120.25,120.25,0,0,1,9.59,9.61c10.12,10.84,24,25.67,45.41,34.18a80,80,0,0,0,18.21,2.07,62.69,62.69,0,0,0,21.8-3.6c13.28-4.91,27.45-9.7,41.73-9.7,14,0,25.67,4.66,35.53,14.25l7.67,7.46-10.39-2.54a137.37,137.37,0,0,0-28.71-3.31,72.6,72.6,0,0,0-19,2.23C636,411.27,617.49,414.48,603.4,414.48Z" transform="translate(-234.96 -223.69)"/><path d="M604.57,403.5l-.5-.19c-3.6-1.37-20.73-8.88-22.2-9.7l4.86-2.86s6.21.76,10.52.76c1.47,0,2.81,0,4-.12.43,0,.85-.05,1.27-.05a17.79,17.79,0,0,1,11.56,4.28l9.23,7.88Z" transform="translate(-234.96 -223.69)"/><path d="M693.55,462.19a44.17,44.17,0,0,1-6.46-.51c-4.63-.67-12.71-10.37-13.55-11.5h0c1.22.86,14.26,1.77,17,1.77h.2c5.73-.18,6.86-2.67,7.23-3.49,2.18-4.79-1.63-13.43-3.66-15.91a23.18,23.18,0,0,0-14-8.51,54.75,54.75,0,0,0-8.67-.68,59.7,59.7,0,0,0-18.38,2.87c-2.62,1.13-41.27,17.44-85.17,17.44A151.48,151.48,0,0,1,539.38,441c-25.12-4.87-33.52-29.9-33.86-31l-.12-.36,0-.38c-2.18-38.25-12.78-46.09-12.89-46.16l-8.84-5.54,10.49.2c30.25.46,42.57,19.77,53.44,36.8,4.27,6.68,8.3,13,13,17.45s14,6.74,26.85,6.74c20.86,0,44.41-6,44.65-6.08,1.37-.38,2.85-.8,4.39-1.25,9.64-2.77,21.64-6.22,33.53-6.22,9.7,0,17.79,2.24,24.74,6.84,11.42,7.57,21.32,25.62,17.46,38.46C710.94,454.91,706.77,462.19,693.55,462.19Z" transform="translate(-234.96 -223.69)"/><path d="M595.75,421.71a144.71,144.71,0,0,1-20.12-1.52c-11.33-1.59-22-9.6-28-20.9-13.21-25.16-30.35-33.9-39-36.62l2.12-5.4c20.47,6.2,28.84,15.83,37.7,26,11.84,13.62,24.08,27.7,46.21,28l2.84,0a383.92,383.92,0,0,0,49-3.5l5.66-.46C633,413.62,612.56,421.71,595.75,421.71Z" transform="translate(-234.96 -223.69)"/><path d="M605.76,516.33a16.28,16.28,0,0,1-9.62-3.12,16.6,16.6,0,0,1-4.3-4.47l-2.61-4.4h8.14a10,10,0,0,0,7.11-2.95c9.8-10.1-1.9-26-3.6-28.21a59.42,59.42,0,0,0-25.78-9.82c-2-.26-4.18-.51-6.47-.76-17.28-1.94-40.94-4.59-56.69-21.51-11.4-12.24-8.21-29.56-8.07-30.29l1.57-8.12L509.3,410c16,30.38,39.19,32.23,40.17,32.3h.18c43.86,5.43,64.15,22.57,65,23.3l.17.14.15.17c16.07,18.87,10.46,34.48,5.68,42.11a17.73,17.73,0,0,1-14.87,8.31Z" transform="translate(-234.96 -223.69)"/><path d="M648.9,507.93c-3.5,0-14.8-2.91-16.34-14.55,0,0,8.56,5.53,15.22,5.53h0a4.63,4.63,0,0,0,4.73-2.86c5.81-12.56-4.42-21.38-4.86-21.75l-.2-.17-.17-.21c-.06-.07-9-9.87-41.28-11.19l-.74,0-.64-.38A145.61,145.61,0,0,0,555.17,446l.7-5.78c.1,0,9.35,1,17.72,1a49.23,49.23,0,0,0,9.68-.71l.66-.15L631.57,452a52.81,52.81,0,0,1,25.55,14.4,31.27,31.27,0,0,1,6.65,9.51c4.53,11.21-2.3,27.06-7.52,30A14.22,14.22,0,0,1,648.9,507.93Z" transform="translate(-234.96 -223.69)"/><path d="M600.24,482c-8,0-22.58-.23-30-1.82-11.59-2.46-19.72-18.2-20-18.89l-3.75-5.64,7.46,1.05c7.89,1.49,11.41,2,14.51,2.38a163.18,163.18,0,0,1,17.39,3.25c19.58,4.39,22.78,15.49,22.91,16l1,3.6-3.72.07S603.68,482,600.24,482Z" transform="translate(-234.96 -223.69)"/><path d="M661.69,480.07l-.83-1.51c-.1-.17-9.91-17.67-25.78-22.6-2.73-.59-37.1-8-48.35-11.08l.45-5.7c.46-.05,45.9-4.9,62.38-16.63l1.33-.95,1.5.64c.11.05,10.89,4.59,22,4.59,5.62,0,10.34-1.15,14-3.42l2-1.21,9.74,10-1.23,1.94c-.4.62-10.1,15.19-48.85,15.19h0c-1.25,0-2.51,0-3.8-.05a59.7,59.7,0,0,1,23.51,16.59h9.32a32.08,32.08,0,0,0,9-5.46l5.78-5.12-1,7.66c-.63,5-4.74,15.06-15.77,17.09l-.26.05Z" transform="translate(-234.96 -223.69)"/><path d="M703.58,424.28a3.22,3.22,0,0,1-2.76-1.61,5.39,5.39,0,0,0-1.51-1.51L695.87,419l3.11-2.59,12.13-9.95-2,8.4c-1.89,8-3.29,9.4-5.53,9.4Z" transform="translate(-234.96 -223.69)"/><path d="M663,504.68a36,36,0,0,1-5.06-.32l-5.93-.93,4.4-4.08c3.53-3.27,4.88-9.83,4.9-9.9l1-4.79,3.76,3.13c2.66,2.23,12.29,4.37,17.74,5.2l7.12,1.09-5.87,4.17c-7.5,5.31-16.11,6.43-22,6.43Z" transform="translate(-234.96 -223.69)"/><path d="M647.84,501c-11.78-11.19-22.76-15.74-22.87-15.79l-1.45-.59-.3-1.53c-1.77-8.82-10.51-18.48-10.6-18.57l-5.45-6,8,1.13c4.15.58,40.57,6.19,42.48,23.15.84,7.46-.09,12.89-2.76,16.15a7.26,7.26,0,0,1-4.8,2.82l-1.3.11Z" transform="translate(-234.96 -223.69)"/><path d="M617.36,395.13c-3.41,0-5.1-1.1-5.53-1.43L604,392.22l8-3.27c7.85-5.1,9.2-10.28,9.25-10.5l.49-2,2.06-.24c3.19-.31,10.14-5,14.3-7.74,1.4-.94,2.67-1.79,3.71-2.43s2.37-1.47,3.76-2.16a51.1,51.1,0,0,1,22.77-5.43,56.94,56.94,0,0,1,15,2.36c7.48,2,11.27,8.69,11.38,8.75s-12.18-1.05-14.2-1.05a52.2,52.2,0,0,0-31.79,11.17C632.34,392.45,622.62,395.13,617.36,395.13Z" transform="translate(-234.96 -223.69)"/><path class="cls-3" d="M517.13,486.29l12.39-7.17a18.27,18.27,0,0,1,8.89-1.85c4.75.21,21.4-.13,21.4-.23S544,457.88,545.08,458.45c0,0-52.5-7.62-40-49.43,3.16-10.57-2.39-30.2-8.65-41.48-3.88-7-10.89-11-14.85-12.85a9.06,9.06,0,0,0-8.55.36,8.46,8.46,0,0,0-3.84,6.11.52.52,0,0,1,0,.11,93.47,93.47,0,0,0-1.1,19.89,1.45,1.45,0,0,1-.05.51c-.29,1-1.46,4.79-3.63,6.11a1.6,1.6,0,0,0-.35.28l-7,7.7a4,4,0,0,0-.62,5.71l4.07,2.87a1.84,1.84,0,0,1,.54,1.81c0,.81-1,2.7-2.31,4.58-1.46,2.07-2.18,4.82.38,6,1.52.7,1.45.37.05.86-1.11.39-1.82,1.15-.08,4,.83,1.37,2.83,4,2,5.66-1.46,2.94-4.11,8.19,5.33,11.1l.22.05a42.42,42.42,0,0,0,16.85-.94,11,11,0,0,1,6.08.34c2.8,1.07,20.4,23.45,23.14,27a1.69,1.69,0,0,1,.35,1l-.23,14.8S512.34,487.1,517.13,486.29Z" transform="translate(-234.96 -223.69)"/><path class="cls-3" d="M475.43,350.38s.5-2.81,1.92-3.74c2.58-1.7,11.61-4.43,16-6.24,0,0-9.59,3.81-12.2,10Z" transform="translate(-234.96 -223.69)"/><path class="cls-3" d="M476.33,344.7s35.09-40.4,73.58-3.52c21.06,20.18,23.22,23.43,49.7,38.81,0,0-16.43,8.1-47.14-27.33,0,0-13.38-23-44.07-18.29-2.8.43-5.58,1.07-8.38,1.54A74.27,74.27,0,0,0,476.33,344.7Z" transform="translate(-234.96 -223.69)"/><path class="cls-3" d="M616.67,381.75l.07-.08a20.08,20.08,0,0,0,1.74-2.27c7-10.48,20.3-18.73,20.3-18.73-1.92.48-3.67,1-5.26,1.48a39.32,39.32,0,0,0-17.68,11.35c-17,19.22-36.15,7.82-38.59,5.91-24.17-18.82-34.55-36.81-43.85-39.83-33.62-10.9-50.68,12.36-50.68,12.36,20.12-9,29.1-10.12,45.74-5.25a25.09,25.09,0,0,1,12.16,8c18.62,22.21,33,30.31,33,30.31a41.28,41.28,0,0,0,8.62,4.67A31,31,0,0,0,616.67,381.75Z" transform="translate(-234.96 -223.69)"/><polygon class="cls-3" points="251.45 129.32 258.43 126.25 255.22 131.71 251.45 129.32"/><path class="cls-3" d="M492.38,357.71s2.35-8.43,13.73-10.3,19.69,0,30.24,8.85,26.14,32.56,56,44.33c0,0,21.75,5.89,41.92-1.57,23.59-8.72,51.93-17.76,74.23,3.91,0,0-28-6.86-49.2-1.05-38.51,10.56-60.63,11.68-73.36,7.21-36.79-12.9-27.34-25.45-57.11-44.61C510.7,352.83,500.4,358.18,492.38,357.71Z" transform="translate(-234.96 -223.69)"/><path class="cls-3" d="M588.58,394a96.18,96.18,0,0,0,12.85.25,14.87,14.87,0,0,1,10.73,3.54l3.23,2.76H605.1S590,394.82,588.58,394Z" transform="translate(-234.96 -223.69)"/><path class="cls-3" d="M689,366.29a36.47,36.47,0,0,0-6.51-2.71,47.07,47.07,0,0,0-35.59,2.9c-1.22.61-2.37,1.31-3.53,2-4.65,2.89-15,10.57-20.63,10.57,0,0-2.29,6.46-12.05,11.67,0,0,10.65,6.58,36.3-13.37A54.3,54.3,0,0,1,687,366C687.62,366.08,688.3,366.18,689,366.29Z" transform="translate(-234.96 -223.69)"/><path class="cls-3" d="M498.05,361.36s11.95,7.12,14.29,48.13c0,0,10,26,34.08,28.38,58.44,5.69,105.76-14.35,105.76-14.35a62.18,62.18,0,0,1,28.59-2.36,25.91,25.91,0,0,1,15.74,9.53c3.64,4.44,11.45,23.62-5.73,24.16-2.31.08-9-.79-11.2-2.35,0,0,4.27,5.77,7.93,6.3,34.83,5.1,23.52-32.44,5.67-44.27-18.79-12.45-42.88-1.52-59.36,3.06,0,0-52,17-75.18-3.38C541,398.68,531.1,354.2,498.05,361.36Z" transform="translate(-234.96 -223.69)"/><path class="cls-3" d="M539.09,377.74S554.42,413.19,576,417.3c14.56,2.78,25.4,5.16,60.48-5.81,0,0-13.39,3.36-39.95,2.79C564.44,413.59,559.81,402.68,539.09,377.74Z" transform="translate(-234.96 -223.69)"/><path class="cls-3" d="M511.86,415.38s-8.31,12.43,2.21,23.73c17.09,18.36,44.73,19.18,61.41,21.36a63.47,63.47,0,0,1,17.26,4.85,31.2,31.2,0,0,1,17.41,19.23c1.88,6.13,2,13.3-3.79,19.07a12.7,12.7,0,0,1-9,3.63h-3a13.49,13.49,0,0,0,3.11,3.31c6.79,5.27,16.06,3.29,20.65-4,3.81-6,7.33-15.92,1.62-28.18a36.23,36.23,0,0,0-14.65-15.79c-9.42-5.53-29.47-11.77-55.78-17.42C549.29,445.19,519.68,440.23,511.86,415.38Z" transform="translate(-234.96 -223.69)"/><path class="cls-3" d="M565.28,443.63s10.12,1.56,18.62-.31c0,0,58.07,9.71,75.42,33.84,7.6,10.58,1.87,24.76-4.56,26.27,0,0-8.66,5.85-17.54-4.91,0,0,13.56,8.19,17.93-1.25,5.33-11.53-.91-19.16-3.95-22-.87-.81-1.74-1.62-2.59-2.46-3.31-3.25-14.63-11.87-42.49-13C606.12,459.82,583.28,447.63,565.28,443.63Z" transform="translate(-234.96 -223.69)"/><path class="cls-3" d="M553.64,460.44s7.78,14,17.57,15.92,33.36,1.51,33.36,1.51-2.52-8.67-19.72-12.25S570.84,463.47,553.64,460.44Z" transform="translate(-234.96 -223.69)"/><path class="cls-3" d="M595.35,442s40-.74,57.3-13.06c0,0,21,6,36-2.29l6.35,6.91s-18.63,14.9-66.65,9.56l-11.9.21s39.81,10.16,52,25.42h11.22a34.42,34.42,0,0,0,10.45-6.19s-1.56,12.41-13.41,14.59H663.41S654.71,450.84,595.35,442Z" transform="translate(-234.96 -223.69)"/><path class="cls-3" d="M700.83,418.68a8.18,8.18,0,0,1,2.49,2.5c.94,1.56,3-7,3-7Z" transform="translate(-234.96 -223.69)"/><path class="cls-3" d="M683.37,495.87s-12.32-.74-16.61-4.32c0,0-.14,6.39-4.42,10.37C662.34,501.92,672.37,503.67,683.37,495.87Z" transform="translate(-234.96 -223.69)"/><path class="cls-3" d="M647.1,496.41s4.94-1.74,4-11.75c-1.43-15.24-34.67-19.16-34.67-19.16s7.69,7.29,9.64,17C626.07,482.54,634.78,484.71,647.1,496.41Z" transform="translate(-234.96 -223.69)"/></g><g id="Textes"><text class="cls-4" transform="translate(60.06 483.35)">MÉTIE<tspan class="cls-5" x="94.14" y="0">R</tspan><tspan x="115.68" y="0">S DE </tspan><tspan class="cls-6" x="200.58" y="0">L</tspan><tspan class="cls-7" x="215.14" y="0">’</tspan><tspan class="cls-8" x="224.25" y="0">A</tspan><tspan x="245.97" y="0">CCOM</tspan><tspan class="cls-9" x="351.08" y="0">P</tspan><tspan class="cls-8" x="370.08" y="0">A</tspan><tspan x="391.8" y="0">GNEMENT</tspan></text><text class="cls-10" transform="translate(246.96 523.37)">P<tspan class="cls-11" x="20.84" y="0">OLITI</tspan><tspan class="cls-12" x="106.07" y="0">Q</tspan><tspan class="cls-11" x="132.76" y="0">UE</tspan></text><text class="cls-13" transform="translate(189.48 604.54)">UNIVE<tspan class="cls-14" x="72.11" y="0">R</tspan><tspan class="cls-15" x="88.26" y="0">SITÉ </tspan><tspan class="cls-16" x="147.25" y="0">D</tspan><tspan class="cls-17" x="165.31" y="0">’</tspan><tspan class="cls-15" x="173.01" y="0">ORLÉANS</tspan></text><polygon class="cls-3" points="124.31 418.27 148.64 418.27 148.64 348.41 186.05 377.1 224.09 348.41 224.09 418.27 247.79 418.27 247.79 300.38 186.05 345.91 124.31 300.38 124.31 418.27"/><path class="cls-3" d="M585,524.07,523.91,642h27.44l5-14.35h55.5L619.32,642h27.44Zm-16.22,79.84,16.53-31.81,15.9,31.81Z" transform="translate(-234.96 -223.69)"/><path class="cls-3" d="M775.23,572.1c-2.5-43-44.28-45.54-44.28-45.54H686.68V642h25.56v-15.6l18.71-.62C744.67,623.87,777.72,615.14,775.23,572.1Zm-25,3.43c-1.87,21.52-19,25.88-19,25.88H712.24V549.64H731S752.15,554,750.28,575.53Z" transform="translate(-234.96 -223.69)"/><rect class="cls-18" x="55.72" y="362.24" width="44.28" height="10.6"/><rect class="cls-18" x="563.55" y="362.24" width="44.28" height="10.6"/></g></svg>